<svg width="143" height="116" viewBox="0 0 143 116" fill="none" xmlns="http://www.w3.org/2000/svg">
<path d="M37.392 46.064C37.392 38.6827 38.7147 32.9013 41.36 28.72C44.048 24.5387 48.4853 22.448 54.672 22.448C60.8587 22.448 65.2747 24.5387 67.92 28.72C70.608 32.9013 71.952 38.6827 71.952 46.064C71.952 53.488 70.608 59.312 67.92 63.536C65.2747 67.76 60.8587 69.872 54.672 69.872C48.4853 69.872 44.048 67.76 41.36 63.536C38.7147 59.312 37.392 53.488 37.392 46.064ZM63.12 46.064C63.12 42.9067 62.9067 40.2613 62.48 38.128C62.096 35.952 61.2853 34.1813 60.048 32.816C58.8533 31.4507 57.0613 30.768 54.672 30.768C52.2827 30.768 50.4693 31.4507 49.232 32.816C48.0373 34.1813 47.2267 35.952 46.8 38.128C46.416 40.2613 46.224 42.9067 46.224 46.064C46.224 49.3067 46.416 52.0373 46.8 54.256C47.184 56.432 47.9947 58.2027 49.232 59.568C50.4693 60.8907 52.2827 61.552 54.672 61.552C57.0613 61.552 58.8747 60.8907 60.112 59.568C61.3493 58.2027 62.16 56.432 62.544 54.256C62.928 52.0373 63.12 49.3067 63.12 46.064ZM77.679 31.6V23.344H93.103V70H83.887V31.6H77.679Z" fill="#D9D9D9"/>
<g filter="url(#filter0_f_18_96)">
<rect x="20" y="49" width="103" height="47" fill="black"/>
</g>
<defs>
<filter id="filter0_f_18_96" x="0" y="29" width="143" height="87" filterUnits="userSpaceOnUse" color-interpolation-filters="sRGB">
<feFlood flood-opacity="0" result="BackgroundImageFix"/>
<feBlend mode="normal" in="SourceGraphic" in2="BackgroundImageFix" result="shape"/>
<feGaussianBlur stdDeviation="10" result="effect1_foregroundBlur_18_96"/>
</filter>
</defs>
</svg>
