<svg width="40" height="40" viewBox="0 0 40 40" fill="none" xmlns="http://www.w3.org/2000/svg">
<circle cx="20" cy="20" r="19.5" stroke="white"/>
<path d="M20.5 13C19.4494 13 18.4091 13.1988 17.4385 13.5851C16.4679 13.9713 15.586 14.5375 14.8431 15.2512C13.3429 16.6927 12.5 18.6477 12.5 20.6862C12.5 24.0835 14.796 26.9658 17.972 27.9881C18.372 28.0496 18.5 27.8113 18.5 27.6038C18.5 27.427 18.5 26.9428 18.5 26.3048C16.284 26.766 15.812 25.2749 15.812 25.2749C15.444 24.3833 14.924 24.145 14.924 24.145C14.196 23.6684 14.98 23.6838 14.98 23.6838C15.78 23.7376 16.204 24.4755 16.204 24.4755C16.9 25.6438 18.076 25.2979 18.532 25.1135C18.604 24.6139 18.812 24.2757 19.036 24.0835C17.26 23.8913 15.396 23.2303 15.396 20.3019C15.396 19.4487 15.7 18.7647 16.22 18.2189C16.14 18.0268 15.86 17.2274 16.3 16.1898C16.3 16.1898 16.972 15.9822 18.5 16.9738C19.132 16.8047 19.82 16.7201 20.5 16.7201C21.18 16.7201 21.868 16.8047 22.5 16.9738C24.028 15.9822 24.7 16.1898 24.7 16.1898C25.14 17.2274 24.86 18.0268 24.78 18.2189C25.3 18.7647 25.604 19.4487 25.604 20.3019C25.604 23.238 23.732 23.8837 21.948 24.0758C22.236 24.3141 22.5 24.7829 22.5 25.4978C22.5 26.5277 22.5 27.3578 22.5 27.6038C22.5 27.8113 22.628 28.0573 23.036 27.9881C26.212 26.9581 28.5 24.0835 28.5 20.6862C28.5 19.6768 28.2931 18.6774 27.891 17.7448C27.489 16.8123 26.8997 15.965 26.1569 15.2512C25.414 14.5375 24.5321 13.9713 23.5615 13.5851C22.5909 13.1988 21.5506 13 20.5 13Z" fill="white"/>
</svg>
