<svg width="1260" height="779" viewBox="0 0 1260 779" fill="none" xmlns="http://www.w3.org/2000/svg">
<g clip-path="url(#clip0_22_188)">
<path d="M94.5 902L94.5 -122" stroke="#1E1E1E" stroke-width="0.5" stroke-linecap="round"/>
<path d="M184.5 902L184.5 -122" stroke="#1E1E1E" stroke-width="0.5" stroke-linecap="round"/>
<path d="M274.5 902L274.5 -122" stroke="#1E1E1E" stroke-width="0.5" stroke-linecap="round"/>
<path d="M364.5 902L364.5 -122" stroke="#1E1E1E" stroke-width="0.5" stroke-linecap="round"/>
<path d="M454.5 902L454.5 -122" stroke="#1E1E1E" stroke-width="0.5" stroke-linecap="round"/>
<path d="M544.5 902L544.5 -122" stroke="#1E1E1E" stroke-width="0.5" stroke-linecap="round"/>
<path d="M634.5 902L634.5 -122" stroke="#1E1E1E" stroke-width="0.5" stroke-linecap="round"/>
<path d="M724.5 902L724.5 -122" stroke="#1E1E1E" stroke-width="0.5" stroke-linecap="round"/>
<path d="M814.5 902L814.5 -122" stroke="#1E1E1E" stroke-width="0.5" stroke-linecap="round"/>
<path d="M904.5 902L904.5 -122" stroke="#1E1E1E" stroke-width="0.5" stroke-linecap="round"/>
<path d="M994.5 902L994.5 -122" stroke="#1E1E1E" stroke-width="0.5" stroke-linecap="round"/>
<path d="M1084.5 902L1084.5 -122" stroke="#1E1E1E" stroke-width="0.5" stroke-linecap="round"/>
<path d="M1174.5 902L1174.5 -122" stroke="#1E1E1E" stroke-width="0.5" stroke-linecap="round"/>
<path d="M-95 57.5L1355 57.5" stroke="#1E1E1E" stroke-width="0.5" stroke-linecap="round"/>
<path d="M-95 147.5L1355 147.5" stroke="#1E1E1E" stroke-width="0.5" stroke-linecap="round"/>
<path d="M-95 237.5L1355 237.5" stroke="#1E1E1E" stroke-width="0.5" stroke-linecap="round"/>
<path d="M-95 327.5L1355 327.5" stroke="#1E1E1E" stroke-width="0.5" stroke-linecap="round"/>
<path d="M-95 417.5L1355 417.5" stroke="#1E1E1E" stroke-width="0.5" stroke-linecap="round"/>
<path d="M-95 507.5L1355 507.5" stroke="#1E1E1E" stroke-width="0.5" stroke-linecap="round"/>
<path d="M-95 597.5L1355 597.5" stroke="#1E1E1E" stroke-width="0.5" stroke-linecap="round"/>
<path d="M-95 687.5L1355 687.5" stroke="#1E1E1E" stroke-width="0.5" stroke-linecap="round"/>
<path d="M-95 777.5L1355 777.5" stroke="#1E1E1E" stroke-width="0.5" stroke-linecap="round"/>
</g>
<defs>
<clipPath id="clip0_22_188">
<rect width="1260" height="779" fill="white"/>
</clipPath>
</defs>
</svg>
