<svg width="41" height="40" viewBox="0 0 41 40" fill="none" xmlns="http://www.w3.org/2000/svg">
<path d="M40.5 20C40.5 30.758 31.5574 39.5 20.5 39.5C9.44259 39.5 0.5 30.758 0.5 20C0.5 9.24201 9.44259 0.5 20.5 0.5C31.5574 0.5 40.5 9.24201 40.5 20Z" stroke="white"/>
<path d="M27.125 12.625C27.5891 12.625 28.0342 12.8094 28.3624 13.1376C28.6906 13.4658 28.875 13.9109 28.875 14.375V26.625C28.875 27.0891 28.6906 27.5342 28.3624 27.8624C28.0342 28.1906 27.5891 28.375 27.125 28.375H14.875C14.4109 28.375 13.9658 28.1906 13.6376 27.8624C13.3094 27.5342 13.125 27.0891 13.125 26.625V14.375C13.125 13.9109 13.3094 13.4658 13.6376 13.1376C13.9658 12.8094 14.4109 12.625 14.875 12.625H27.125ZM26.6875 26.1875V21.55C26.6875 20.7935 26.387 20.0679 25.852 19.533C25.3171 18.998 24.5915 18.6975 23.835 18.6975C23.0912 18.6975 22.225 19.1525 21.805 19.835V18.8637H19.3637V26.1875H21.805V21.8737C21.805 21.2 22.3475 20.6488 23.0213 20.6488C23.3461 20.6488 23.6577 20.7778 23.8875 21.0075C24.1172 21.2373 24.2463 21.5489 24.2463 21.8737V26.1875H26.6875ZM16.52 17.49C16.9099 17.49 17.2838 17.3351 17.5594 17.0594C17.8351 16.7838 17.99 16.4099 17.99 16.02C17.99 15.2063 17.3338 14.5412 16.52 14.5412C16.1278 14.5413 15.7517 14.697 15.4744 14.9744C15.197 15.2517 15.0413 15.6278 15.0412 16.02C15.0412 16.8338 15.7063 17.49 16.52 17.49ZM17.7363 26.1875V18.8637H15.3125V26.1875H17.7363Z" fill="white"/>
</svg>
