<svg width="70" height="70" viewBox="0 0 70 70" fill="none" xmlns="http://www.w3.org/2000/svg">
<path d="M57.694 42.1435C61.4913 43.3388 63.6672 47.4517 61.629 50.8713C59.2289 54.8981 55.9299 58.356 51.9529 60.9538C45.9483 64.8759 38.7696 66.5947 31.6399 65.8174C24.5101 65.04 17.8705 61.8145 12.8522 56.6905C7.83404 51.5665 4.74775 44.861 4.11926 37.7166C3.49076 30.5722 5.35894 23.4308 9.40548 17.5094C13.452 11.588 19.4266 7.25283 26.3111 5.2426C33.1956 3.23238 40.5642 3.67146 47.1613 6.48503C51.5308 8.34856 55.3828 11.1774 58.449 14.7233C61.053 17.7346 59.6286 22.1642 56.0982 24.0041V24.0041C52.5679 25.8441 48.2663 24.2827 45.1108 21.8554C44.0103 21.0088 42.8005 20.2982 41.5057 19.746C37.9766 18.2408 34.0347 18.006 30.3519 19.0813C26.669 20.1567 23.4729 22.4758 21.3082 25.6434C19.1436 28.8111 18.1442 32.6313 18.4804 36.4532C18.8166 40.2751 20.4676 43.8622 23.1521 46.6033C25.8366 49.3444 29.3884 51.0698 33.2025 51.4857C37.0165 51.9016 40.8568 50.9821 44.0689 48.8839C45.2474 48.1142 46.3146 47.2032 47.2505 46.1775C49.9337 43.2366 53.8966 40.9482 57.694 42.1435V42.1435Z" fill="url(#paint0_linear_1_167)"/>
<g filter="url(#filter0_f_1_167)">
<path d="M31 59.7722C31 63.2117 33.8159 66.063 37.1862 65.3766C43.1028 64.1716 48.587 61.2537 52.9203 56.9203C58.7339 51.1067 62 43.2217 62 35C62 26.7783 58.7339 18.8933 52.9203 13.0797C48.587 8.74634 43.1028 5.82839 37.1862 4.62338C33.8159 3.93697 31 6.78826 31 10.2278V10.2278C31 13.6673 33.8642 16.3579 37.1115 17.4915C39.7219 18.4027 42.1207 19.8949 44.1129 21.8871C47.5907 25.3648 49.5445 30.0817 49.5445 35C49.5445 39.9183 47.5907 44.6352 44.1129 48.1129C42.1207 50.1051 39.7219 51.5973 37.1115 52.5085C33.8642 53.6421 31 56.3327 31 59.7722V59.7722Z" fill="url(#paint1_linear_1_167)"/>
</g>
<g filter="url(#filter1_f_1_167)">
<path d="M35 63.173C35 64.7343 36.2685 66.0134 37.8233 65.8713C45.0096 65.2143 51.7759 62.0647 56.9203 56.9203C62.7339 51.1067 66 43.2217 66 35C66 26.7783 62.7339 18.8933 56.9203 13.0797C51.7759 7.93531 45.0096 4.78572 37.8233 4.12875C36.2685 3.98661 35 5.2657 35 6.82701V6.82701C35 8.38833 36.2698 9.63771 37.8214 9.81146C43.5054 10.448 48.8388 12.9942 52.9223 17.0777C57.6756 21.831 60.346 28.2778 60.346 35C60.346 41.7222 57.6756 48.169 52.9223 52.9223C48.8388 57.0058 43.5054 59.552 37.8214 60.1885C36.2697 60.3623 35 61.6117 35 63.173V63.173Z" fill="url(#paint2_linear_1_167)"/>
</g>
<defs>
<filter id="filter0_f_1_167" x="27" y="0.520622" width="39" height="68.9588" filterUnits="userSpaceOnUse" color-interpolation-filters="sRGB">
<feFlood flood-opacity="0" result="BackgroundImageFix"/>
<feBlend mode="normal" in="SourceGraphic" in2="BackgroundImageFix" result="shape"/>
<feGaussianBlur stdDeviation="2" result="effect1_foregroundBlur_1_167"/>
</filter>
<filter id="filter1_f_1_167" x="31" y="0.117943" width="39" height="69.7641" filterUnits="userSpaceOnUse" color-interpolation-filters="sRGB">
<feFlood flood-opacity="0" result="BackgroundImageFix"/>
<feBlend mode="normal" in="SourceGraphic" in2="BackgroundImageFix" result="shape"/>
<feGaussianBlur stdDeviation="2" result="effect1_foregroundBlur_1_167"/>
</filter>
<linearGradient id="paint0_linear_1_167" x1="4" y1="35" x2="66.2931" y2="38.9399" gradientUnits="userSpaceOnUse">
<stop stop-color="#6928FE"/>
<stop offset="1" stop-color="#FFA2BD"/>
</linearGradient>
<linearGradient id="paint1_linear_1_167" x1="1.2777e-07" y1="35" x2="62.2931" y2="38.9399" gradientUnits="userSpaceOnUse">
<stop stop-color="#F1517B"/>
<stop offset="1" stop-color="#FFA2BD"/>
</linearGradient>
<linearGradient id="paint2_linear_1_167" x1="4" y1="35" x2="66.2931" y2="38.9399" gradientUnits="userSpaceOnUse">
<stop stop-color="#91D3E7"/>
<stop offset="1" stop-color="#6F69E2"/>
</linearGradient>
</defs>
</svg>
