<svg width="41" height="40" viewBox="0 0 41 40" fill="none" xmlns="http://www.w3.org/2000/svg">
<path d="M40.5 20C40.5 30.758 31.5574 39.5 20.5 39.5C9.44259 39.5 0.5 30.758 0.5 20C0.5 9.24201 9.44259 0.5 20.5 0.5C31.5574 0.5 40.5 9.24201 40.5 20Z" stroke="white"/>
<path d="M29.2167 16C28.575 16.2917 27.8833 16.4833 27.1667 16.575C27.9 16.1333 28.4667 15.4333 28.7333 14.5917C28.0417 15.0083 27.275 15.3 26.4667 15.4667C25.8083 14.75 24.8833 14.3333 23.8333 14.3333C21.875 14.3333 20.275 15.9333 20.275 17.9083C20.275 18.1917 20.3083 18.4667 20.3667 18.725C17.4 18.575 14.7583 17.15 13 14.9917C12.6917 15.5167 12.5167 16.1333 12.5167 16.7833C12.5167 18.025 13.1417 19.125 14.1083 19.75C13.5167 19.75 12.9667 19.5833 12.4833 19.3333C12.4833 19.3333 12.4833 19.3333 12.4833 19.3583C12.4833 21.0917 13.7167 22.5417 15.35 22.8667C15.05 22.95 14.7333 22.9917 14.4083 22.9917C14.1833 22.9917 13.9583 22.9667 13.7417 22.925C14.1917 24.3333 15.5 25.3833 17.075 25.4083C15.8583 26.375 14.3167 26.9417 12.6333 26.9417C12.35 26.9417 12.0667 26.925 11.7833 26.8917C13.3667 27.9083 15.25 28.5 17.2667 28.5C23.8333 28.5 27.4417 23.05 27.4417 18.325C27.4417 18.1667 27.4417 18.0167 27.4333 17.8583C28.1333 17.3583 28.7333 16.725 29.2167 16Z" fill="white"/>
</svg>
